<svg xmlns="http://www.w3.org/2000/svg" viewBox="0 0 390.557 390.557"><g><path d="M389.772 248.296l-42.991-68.063V55.028l-17.5-17.5H61.275l-17.5 17.5v125.204L.784 248.296h388.988zM311.781 72.528v87.362c-22.553-5.834-61.514-13.028-116.503-13.028s-93.95 7.194-116.503 13.028V72.528h233.006zM0 269.831v35h40.778v48.197h35v-48.197h239v48.197h35v-48.197h40.779v-35z"/><path d="M181.075 128.653v-20.389c0-12.102-17.564-21.916-39.23-21.916s-39.229 9.814-39.229 21.916v30.604s23.14-5.826 39.045-7.332c14.319-1.357 39.414-2.883 39.414-2.883zM287.941 138.868v-30.604c0-12.102-17.564-21.916-39.23-21.916s-39.23 9.814-39.23 21.916v20.389s25.096 1.525 39.415 2.883c15.906 1.506 39.045 7.332 39.045 7.332z"/></g></svg>