<svg xmlns="http://www.w3.org/2000/svg" viewBox="0 0 350 350" ><g><path d="M349.772 228.298l-42.991-68.063V35.028l-17.5-17.5H61.275l-17.5 17.5v125.206L.784 228.298h348.988zm-77.991-175.77v85.076c-18.886-5.5-49.271-10.742-96.503-10.742s-77.617 5.242-96.503 10.742V52.528h193.006zM0 249.833v35h40.778v48.195h35v-48.195h199v48.195h35v-48.195h40.779v-35z"/><path d="M214.508 114.87V87.267c0-12.104-17.564-21.916-39.23-21.916s-39.229 9.813-39.229 21.916v27.604s24.603-2.174 39.23-2.174 39.229 2.173 39.229 2.173z"/></g></svg>